<svg xmlns="http://www.w3.org/2000/svg" viewBox="0 0 64 64">
  <defs>
    <linearGradient id="bg" x1="0" y1="0" x2="1" y2="1">
      <stop offset="0%" stop-color="#111b33"/>
      <stop offset="100%" stop-color="#0a0e1a"/>
    </linearGradient>
    <linearGradient id="book" x1="0" y1="0" x2="1" y2="1">
      <stop offset="0%" stop-color="#7CB9E8"/>
      <stop offset="100%" stop-color="#4A90D9"/>
    </linearGradient>
  </defs>
  <rect width="64" height="64" rx="14" fill="url(#bg)"/>
  <circle cx="46" cy="15" r="1.6" fill="#F5A623" opacity="0.9"/>
  <circle cx="14" cy="20" r="1" fill="#c5d5f0" opacity="0.7"/>
  <circle cx="52" cy="28" r="1" fill="#c5d5f0" opacity="0.5"/>
  <path d="M32 20c-4-3.4-9.6-4.4-14-3.2-.9.2-1.5 1-1.5 1.9v22.5c0 1.3 1.2 2.2 2.4 1.9 4.2-1 9.4 0 13.1 3.1V20z" fill="url(#book)"/>
  <path d="M32 20c4-3.4 9.6-4.4 14-3.2.9.2 1.5 1 1.5 1.9v22.5c0 1.3-1.2 2.2-2.4 1.9-4.2-1-9.4 0-13.1 3.1V20z" fill="url(#book)" opacity="0.75"/>
  <path d="M32 20v26.2" stroke="#0a0e1a" stroke-width="1.2" opacity="0.35"/>
</svg>
